<svg t="1689323864305" class="icon" viewBox="0 0 1024 1024" version="1.1"
  xmlns="http://www.w3.org/2000/svg" p-id="12453" width="200" height="200">
  <path d="M512.7168 508.8768m-460.8 0a460.8 460.8 0 1 0 921.6 0 460.8 460.8 0 1 0-921.6 0Z" fill="#434341" p-id="12454"></path>
  <path d="M688.2304 251.1872H337.152a61.44 61.44 0 0 0-61.44 61.44V752.64a27.3408 27.3408 0 0 0 39.936 24.2688l189.44-98.816a27.4432 27.4432 0 0 1 25.6 0l178.4832 97.28a27.2896 27.2896 0 0 0 40.3968-23.9616v-438.784a61.44 61.44 0 0 0-61.3376-61.44z m-87.9104 226.9696h-63.0272v63.0272a24.576 24.576 0 0 1-49.152 0V478.1568H424.96a24.576 24.576 0 0 1 0-49.152h63.1808V365.9264a24.576 24.576 0 0 1 49.152 0v63.0784h63.0272a24.576 24.576 0 0 1 0 49.152z" fill="#FBD180" p-id="12455"></path>
</svg>