<svg xmlns="http://www.w3.org/2000/svg" width="200" height="200" class="icon" viewBox="0 0 1050 1024"><path fill="#FFF" d="M260.166 116.492h523.95a143.674 143.674 0 0 1 143.653 143.674v503.668a143.674 143.674 0 0 1-143.653 143.674h-523.95a143.674 143.674 0 0 1-143.674-143.674V260.166a143.654 143.654 0 0 1 143.633-143.674z"/><path fill="#000B1D" d="M779.809 738.71H670.16a24 24 0 0 1-22.484-14.508l-119.027-278.3a5.254 5.254 0 0 0-6.477-3.639l-.116.039a5.254 5.254 0 0 0-3.561 3.469l-74.175 176.7a6.284 6.284 0 0 0 3.346 8.234l.015.007a6.33 6.33 0 0 0 2.443.481h81.536a12.573 12.573 0 0 1 11.577 7.673l35.691 79.448a14.657 14.657 0 0 1-7.757 19.223l-.02.007a14.615 14.615 0 0 1-5.715 1.166H268.61a13.519 13.519 0 0 1-12.35-18.858l188.807-449.615a25.538 25.538 0 0 1 24.088-15.934h108.897a25.495 25.495 0 0 1 23.98 15.934l190.103 449.615a13.534 13.534 0 0 1-12.326 18.858z"/></svg>