<svg t="1689323591488" viewBox="0 0 1024 1024" version="1.1"
  xmlns="http://www.w3.org/2000/svg" p-id="5094" width="200" height="200">
  <path d="M1023.961889 511.980945a510.242027 510.242027 0 0 1-41.231128 201.611431l-1.696505 3.90802a512.827682 512.827682 0 0 1-557.892608 298.781779q-4.612373-0.817958-9.209598-1.696505a507.407955 507.407955 0 0 1-92.610991-27.310699q-7.293456-2.931015-14.480882-6.074094c-3.271831-1.423852-6.543662-2.893147-9.785198-4.407883A512.608046 512.608046 0 0 1 0 511.980945C0 229.225078 229.225078 0 511.980945 0s511.980945 229.225078 511.980944 511.980945z" fill="#536DFE" p-id="5095"></path>
  <path d="M423.141648 1016.282175q-4.612373-0.817958-9.209598-1.696505c-1.999452-58.029556-8.861209-177.133289-32.263888-301.871841-12.799524-68.269175-30.567383-138.250002-55.212147-200.808621a624.986348 624.986348 0 0 0-28.886025-63.376576c-24.902268-47.032569-55.106115-86.627782-91.732444-113.453766l5.392462-7.361619q45.692027 33.490825 82.129014 94.034843 10.928824 18.131396 20.994249 38.686371 10.792498 21.993974 20.585269 46.699327 6.248288 15.722965 12.07245 32.53654 25.356689 73.002727 43.109401 166.590723 3.930741 20.676154 7.482799 42.367181c18.343459 112.045061 23.872248 215.637891 25.538458 267.653943zM306.840177 981.200877c-3.271831-1.423852-6.543662-2.893147-9.785198-4.407883-3.165799-34.384519-8.982388-77.0395-19.615838-117.528407a385.586785 385.586785 0 0 0-17.889038-53.318725c-12.13304-28.40131-27.840857-52.54621-48.153474-67.43607l5.392462-7.346473c21.266901 15.571491 37.671497 40.18596 50.349842 68.981102 14.283965 32.445656 23.811658 70.208038 30.158404 106.289061 4.710831 26.795689 7.679714 52.682536 9.54284 74.767395z" opacity=".2" p-id="5096"></path>
  <path d="M154.899986 289.287411m-45.576907 0a45.576907 45.576907 0 1 0 91.153814 0 45.576907 45.576907 0 1 0-91.153814 0Z" opacity=".2" p-id="5097"></path>
  <path d="M169.576268 681.617803m-45.576907 0a45.576907 45.576907 0 1 0 91.153815 0 45.576907 45.576907 0 1 0-91.153815 0Z" opacity=".2" p-id="5098"></path>
  <path d="M335.838293 365.84068c-9.664019 54.527485 11.671045 103.900322 11.671045 103.900322s37.005013-39.033245 46.669033-93.559216-11.66953-103.898808-11.669531-103.898808-37.005013 39.031731-46.669032 93.557702zM184.3707 495.274916c52.008479 19.017517 104.268403 6.813285 104.268403 6.813284s-32.060913-43.038209-84.067877-62.055725-104.269918-6.813285-104.269918-6.813285 32.060913 43.038209 84.067877 62.055726zM175.550389 842.697914c36.453649 13.329681 73.136024 4.635094 73.136024 4.635094s-22.419615-30.308363-58.873265-43.63956-73.136024-4.632064-73.136023-4.632064 22.419615 30.306848 58.873264 43.63653z" opacity=".2" p-id="5099"></path>
  <path d="M510.929717 425.760627m-199.596831 0a199.596832 199.596832 0 1 0 399.193663 0 199.596832 199.596832 0 1 0-399.193663 0Z" fill="#D0CDE1" p-id="5100"></path>
  <path d="M432.961684 578.576336s24.95074 118.511471 24.95074 130.985326 118.509956 68.611506 118.509956 68.611505l106.036101-18.71154 37.424596-112.272271s-62.373821-93.562246-62.373821-130.986841z" fill="#D0CDE1" p-id="5101"></path>
  <path d="M982.730761 713.592376l-1.696505 3.90802a512.827682 512.827682 0 0 1-557.892608 298.781779q-4.612373-0.817958-9.209598-1.696505a507.407955 507.407955 0 0 1-92.610991-27.310699q-7.293456-2.931015-14.480882-6.074094c-3.271831-1.423852-6.543662-2.893147-9.785198-4.407883a511.364447 511.364447 0 0 1-83.689192-48.895695l-23.660185-68.632712 13.299387-10.148735 27.356141-20.888216 29.188973-22.281774 7.58883-5.801441 114.529229-87.430592 8.452229-6.452778 59.529146-45.442096 0.015147-0.015147s64.376302 104.895504 157.941577 73.707079 91.520381-120.618469 91.520381-120.618469zM337.83926 264.951654s63.372032-137.304807 184.83421-105.619549 190.114581 79.214661 195.394952 126.744064-2.6417 118.820477-2.6417 118.820477-13.202444-97.697476-97.697477-76.572961-216.517953 5.280372-216.517953 5.280372l-21.124515 190.114581s-23.763187-34.326959-50.168074-13.202444-76.574475-203.317024 7.922072-245.56454z" fill="#2F2E41" p-id="5102"></path>
  <path d="M321.321059 987.274971q-7.293456-2.931015-14.480882-6.074094c-3.271831-1.423852-6.543662-2.893147-9.785198-4.407883a513.24575 513.24575 0 0 1-132.675772-88.915034c13.920429-18.964501 25.326395-28.613373 25.326395-28.613373h93.565275l14.02646 47.168895zM900.768368 703.322462l80.265888 14.177934a511.896119 511.896119 0 0 1-85.976445 134.160214z" fill="#2F2E41" p-id="5103"></path>
</svg>