<svg xmlns="http://www.w3.org/2000/svg" width="81" height="81" viewBox="0 0 1050 1024"><path fill="#B3E5FC" d="M227.79 677.79a307.895 284.21 0 1 0 615.789 0 307.895 284.21 0 1 0-615.79 0Z"/><path fill="#4FC3F7" d="M535.684 393.579a324.829 324.829 0 0 0-164.392 44.195 165.647 165.647 0 0 0 328.784 0 324.829 324.829 0 0 0-164.392-44.195z"/><path fill="#B3E5FC" d="M346.211 346.21a189.474 189.474 0 1 0 378.947 0 189.474 189.474 0 1 0-378.947 0Z"/><path fill="#263238" d="M583.053 322.526a23.684 23.684 0 1 0 47.368 0 23.684 23.684 0 1 0-47.368 0ZM512 630.421a23.684 23.684 0 1 0 47.368 0 23.684 23.684 0 1 0-47.368 0Zm0 118.421a23.684 23.684 0 1 0 47.368 0 23.684 23.684 0 1 0-47.368 0Zm0 118.421a23.684 23.684 0 1 0 47.368 0 23.684 23.684 0 1 0-47.368 0Z"/><path fill="#FF5722" d="M583.053 393.579a47.368 47.368 0 0 1-47.369 47.368h-118.42s70.2-94.736 118.42-94.736a47.368 47.368 0 0 1 47.369 47.368z"/><path fill="#263238" d="M440.947 322.526a23.684 23.684 0 1 0 47.369 0 23.684 23.684 0 1 0-47.369 0Z"/><path fill="#546E7A" d="M393.579 62h284.21v165.79H393.58z"/><path fill="#607D8B" d="M322.526 204.105h426.316v47.369H322.526z"/><path fill="#78909C" d="M440.947 109.368h47.369v94.737h-47.369z"/></svg>